<svg xmlns="http://www.w3.org/2000/svg" width="50.155" height="62.982" viewBox="0 0 50.155 62.982"><defs><style>.a{fill:#fff;stroke:#fff;}</style></defs><path class="a" d="M102.136,51.113,99.368,16.234a4.359,4.359,0,0,0-4.327-4.007H89.574v-.246a11.981,11.981,0,0,0-23.962,0v.246H60.144a4.358,4.358,0,0,0-4.326,4L53.049,51.118A10.092,10.092,0,0,0,63.112,61.982H92.073a10.092,10.092,0,0,0,10.063-10.869ZM69.242,11.981a8.351,8.351,0,0,1,16.7,0v.246h-16.7Zm27.572,44.3a6.4,6.4,0,0,1-4.741,2.071H63.112A6.461,6.461,0,0,1,56.669,51.4l2.769-34.889a.712.712,0,0,1,.707-.654h5.467v4.471a1.815,1.815,0,0,0,3.631,0V15.857h16.7v4.471a1.815,1.815,0,1,0,3.631,0V15.857h5.467a.713.713,0,0,1,.707.659L98.516,51.4A6.4,6.4,0,0,1,96.814,56.281Z" transform="translate(-52.515 0.5)"/></svg>