<svg xmlns="http://www.w3.org/2000/svg" width="62.067" height="62.069" viewBox="0 0 62.067 62.069"><defs><style>.a{fill:#2a2a2a;stroke:#2a2a2a;stroke-width:0.5px;}</style></defs><g transform="translate(0.25 0.25)"><g transform="translate(8.177 54.354)"><path class="a" d="M70.056,452.353a1.2,1.2,0,1,0,.352.85A1.211,1.211,0,0,0,70.056,452.353Z" transform="translate(-68.003 -452.001)"/></g><g transform="translate(54.407 21.646)"><path class="a" d="M454.507,180.36a1.2,1.2,0,1,0,.353.85A1.209,1.209,0,0,0,454.507,180.36Z" transform="translate(-452.454 -180.008)"/></g><g transform="translate(0)"><path class="a" d="M61.222.352A1.2,1.2,0,0,0,60.371,0L30.79,0a1.2,1.2,0,0,0-1.2,1.2V4.643L18.189,7.7a1.2,1.2,0,0,0-.85,1.473l5.908,22.047-5.111,5.111a3.606,3.606,0,0,0-2.978-1.574H3.614A3.612,3.612,0,0,0,.007,38.361v19.6a3.612,3.612,0,0,0,3.607,3.608H15.158a3.613,3.613,0,0,0,3.5-2.739l1.43,1.247a6.059,6.059,0,0,0,3.982,1.493h36.3a1.2,1.2,0,0,0,1.2-1.2V1.2A1.2,1.2,0,0,0,61.222.352ZM16.361,57.961a1.2,1.2,0,0,1-1.2,1.2H3.614a1.2,1.2,0,0,1-1.2-1.2v-19.6a1.2,1.2,0,0,1,1.2-1.2H8.184V51.011a1.2,1.2,0,1,0,2.405,0V37.158h4.569a1.2,1.2,0,0,1,1.2,1.2v19.6ZM19.973,9.709l9.615-2.576v4.456l-.806.216a1.2,1.2,0,0,0-.85,1.473,3.241,3.241,0,0,1-2.289,3.966,1.2,1.2,0,0,0-.85,1.475L29.48,36.075H27.066l-1.244-4.866a1.2,1.2,0,0,0-.2-.422ZM29.588,17.1V27.25l-2.193-8.121A5.634,5.634,0,0,0,29.588,17.1Zm17.276,42.06H24.071a3.654,3.654,0,0,1-2.4-.9l-2.9-2.533V39.1l5.25-5.25.952,3.725a1.2,1.2,0,0,0,1.165.9H49.775a1.684,1.684,0,1,1,0,3.367H37.66a1.2,1.2,0,0,0,0,2.405H53.538a1.684,1.684,0,1,1,0,3.367H37.66a1.2,1.2,0,1,0,0,2.405h13.3a1.684,1.684,0,1,1,0,3.367H37.66a1.2,1.2,0,1,0,0,2.405h9.2a1.683,1.683,0,1,1,0,3.367Zm12.305,0H50.588a4.074,4.074,0,0,0,0-3.367h.377a4.086,4.086,0,0,0,3.654-5.918,4.085,4.085,0,0,0,2.2-6.378V28.26a1.2,1.2,0,0,0-2.405,0V41.944a4.09,4.09,0,0,0-.877-.1H53.5a4.086,4.086,0,0,0-3.724-5.772H47.841a5.755,5.755,0,1,0-4.521,0H36.747V13.211A5.661,5.661,0,0,0,41.058,8.9H50.1a5.661,5.661,0,0,0,4.311,4.311V16.95a1.2,1.2,0,1,0,2.405,0V12.138a1.2,1.2,0,0,0-1.2-1.2A3.241,3.241,0,0,1,52.379,7.7a1.2,1.2,0,0,0-1.2-1.2H39.984a1.2,1.2,0,0,0-1.2,1.2,3.241,3.241,0,0,1-3.238,3.238,1.2,1.2,0,0,0-1.2,1.2V36.076H31.993V2.406H59.169ZM45.581,34.134a3.35,3.35,0,1,1,3.35-3.35A3.354,3.354,0,0,1,45.581,34.134Z" transform="translate(-0.007 0)"/></g></g></svg>