<svg xmlns="http://www.w3.org/2000/svg" width="540" height="414.322" viewBox="0 0 540 414.322"><defs><style>.a{fill:#a2d9fd;}</style></defs><g transform="translate(0 253.206)"><path class="a" d="M90.454,451.98H540s-35.088-76.353-105.646-76.353c-24.933,0-45.435,9.533-61.525,21.863-17.372,13.311-41.8,9.585-54.9-8.269-28.564-38.934-74.181-81.585-136.952-81.585-36.276,0-66.823,14.246-91.661,33.786a38.692,38.692,0,0,1-56.533-9.078A315.49,315.49,0,0,0,0,290.864V451.98H90.454Z" transform="translate(0 -290.864)"/></g><g transform="translate(53.651)"><path class="a" d="M154.7,263.588a2.34,2.34,0,0,0-.924.189,3.285,3.285,0,0,0-4.35-1.967,5.435,5.435,0,0,0-6.008-4.512,7.762,7.762,0,0,0-14.244,0,5.434,5.434,0,0,0-5.987,4.392,3.276,3.276,0,0,0-3.874,1.784,2.4,2.4,0,0,0-2.234.257,4.28,4.28,0,0,0-7.87-.731,3.324,3.324,0,0,0-4.63.8,2.414,2.414,0,0,0-3.876,1.925c0,.072,0,.142.011.212h56.337A2.352,2.352,0,0,0,154.7,263.588Z" transform="translate(-100.707 -158.605)"/><path class="a" d="M588.093,147.53a5.6,5.6,0,0,1,2.208.452,7.852,7.852,0,0,1,10.4-4.7,12.988,12.988,0,0,1,14.361-10.785,18.553,18.553,0,0,1,34.048,0,12.988,12.988,0,0,1,14.31,10.5,7.829,7.829,0,0,1,9.258,4.264,5.75,5.75,0,0,1,5.339.616,10.229,10.229,0,0,1,18.81-1.746,7.945,7.945,0,0,1,11.067,1.917,5.77,5.77,0,0,1,9.265,4.6c0,.171-.011.34-.025.508H582.472A5.621,5.621,0,0,1,588.093,147.53Z" transform="translate(-274.339 -110.291)"/><path class="a" d="M673.861,240.139h-39.9a.942.942,0,0,1-.943-.942h0a.943.943,0,0,1,.943-.944h39.9a.943.943,0,0,1,.942.944h0A.943.943,0,0,1,673.861,240.139Z" transform="translate(-293.675 -153.318)"/><path class="a" d="M642.473,256.992h-39.9a.943.943,0,0,1-.942-.943h0a.943.943,0,0,1,.942-.943h39.9a.943.943,0,0,1,.942.943h0A.943.943,0,0,1,642.473,256.992Z" transform="translate(-282.297 -159.519)"/><path class="a" d="M747.5,309.294H707.6a.942.942,0,0,1-.942-.942h0a.943.943,0,0,1,.942-.943h39.9a.943.943,0,0,1,.944.943h0A.943.943,0,0,1,747.5,309.294Z" transform="translate(-320.035 -178.764)"/><path class="a" d="M809.091,336.822h-39.9a.943.943,0,0,1-.943-.943h0a.944.944,0,0,1,.943-.944h39.9a.944.944,0,0,1,.943.944h0A.943.943,0,0,1,809.091,336.822Z" transform="translate(-342.697 -188.892)"/><path class="a" d="M182.439,105.756h-39.9a.943.943,0,0,1-.943-.943h0a.943.943,0,0,1,.943-.942h39.9a.943.943,0,0,1,.943.942h0A.943.943,0,0,1,182.439,105.756Z" transform="translate(-115.753 -103.871)"/><path class="a" d="M219.663,137.669h-39.9a.943.943,0,0,1-.942-.943h0a.943.943,0,0,1,.942-.943h39.9a.943.943,0,0,1,.944.943h0A.943.943,0,0,1,219.663,137.669Z" transform="translate(-129.45 -115.613)"/></g></svg>