<svg xmlns="http://www.w3.org/2000/svg" width="333.088" height="271.908" viewBox="0 0 333.088 271.908"><defs><style>.a{fill:#e6e6df;}.b,.p{fill:#282b30;}.c{fill:#ababab;}.d{fill:#8ca0ab;}.e{fill:#ffbc96;}.f{fill:#9c9c9c;}.g{fill:#b1a912;}.h{fill:#40434d;}.i{fill:#993747;}.j{fill:#3e424a;}.k{fill:#4b4e59;}.l{fill:#899cab;}.m{fill:#c8c5c3;}.n{fill:#5e5169;}.o{fill:#e37f44;}.p{opacity:0.33;}</style></defs><path class="a" d="M368.809,306.4c0,3.105-3.14,5.632-7.017,5.632l-97.738.088c-3.877.017-7.017-2.509-7.017-5.6L257,208.612l-.018-41.07c0-3.106,3.14-5.614,7-5.614l97.754-.105c3.859,0,7,2.509,7,5.614l.017,40.877Z" transform="translate(-256.985 -161.823)"/><path class="b" d="M368.757,208.314l-111.754.3-.018-41.07c0-3.106,3.14-5.614,7-5.614l97.754-.105c3.859,0,7,2.509,7,5.614Z" transform="translate(-256.985 -161.823)"/><rect class="c" width="97.627" height="24.627" transform="translate(7.258 15.043) rotate(-0.059)"/><rect class="d" width="26.655" height="4.38" transform="translate(77.911 5.952) rotate(-0.059)"/><rect class="e" width="12.92" height="9.479" transform="translate(74.437 51.345) rotate(-0.059)"/><rect class="e" width="13.435" height="9.479" transform="translate(91.164 51.328) rotate(-0.058)"/><rect class="b" width="12.914" height="9.05" transform="translate(92.015 68.45) rotate(-0.057)"/><rect class="b" width="12.914" height="9.05" transform="translate(75.202 68.467) rotate(-0.059)"/><rect class="b" width="12.914" height="9.05" transform="translate(58.783 68.484) rotate(-0.059)"/><rect class="b" width="12.914" height="9.05" transform="translate(41.936 68.501) rotate(-0.059)"/><rect class="b" width="12.914" height="9.05" transform="matrix(1, -0.001, 0.001, 1, 24.377, 68.519)"/><rect class="b" width="12.914" height="9.05" transform="translate(7.301 68.537) rotate(-0.057)"/><rect class="b" width="12.914" height="10.361" transform="translate(92.02 84.628) rotate(-0.059)"/><rect class="b" width="12.914" height="10.361" transform="translate(75.207 84.646) rotate(-0.059)"/><rect class="f" width="12.914" height="10.361" transform="translate(58.788 84.662) rotate(-0.059)"/><rect class="f" width="12.914" height="10.361" transform="translate(41.941 84.68) rotate(-0.059)"/><rect class="f" width="12.914" height="10.361" transform="matrix(1, -0.001, 0.001, 1, 24.382, 84.698)"/><rect class="b" width="12.914" height="10.361" transform="translate(7.306 84.715) rotate(-0.059)"/><rect class="b" width="12.914" height="10.361" transform="matrix(1, -0.001, 0.001, 1, 92.023, 99.057)"/><rect class="b" width="12.914" height="10.361" transform="matrix(1, -0.001, 0.001, 1, 75.209, 99.074)"/><rect class="f" width="12.913" height="10.361" transform="translate(59.093 99.09) rotate(-0.059)"/><rect class="f" width="13.216" height="10.361" transform="matrix(1, -0.001, 0.001, 1, 41.943, 99.108)"/><rect class="f" width="12.914" height="10.361" transform="translate(24.687 99.125) rotate(-0.059)"/><rect class="b" width="12.914" height="10.361" transform="matrix(1, -0.001, 0.001, 1, 7.309, 99.144)"/><rect class="f" width="12.914" height="10.361" transform="translate(59.095 113.519) rotate(-0.059)"/><rect class="f" width="12.914" height="10.361" transform="translate(42.248 113.536) rotate(-0.059)"/><rect class="f" width="12.914" height="10.361" transform="translate(24.694 113.547)"/><rect class="g" width="12.914" height="10.361" transform="matrix(1, -0.001, 0.001, 1, 7.311, 113.572)"/><rect class="b" width="12.914" height="25.734" transform="translate(92.032 113.307)"/><rect class="b" width="12.914" height="25.734" transform="translate(75.205 113.331) rotate(-0.059)"/><rect class="b" width="12.914" height="10.36" transform="translate(58.795 128.722) rotate(-0.059)"/><rect class="b" width="12.914" height="10.361" transform="translate(41.948 128.738) rotate(-0.059)"/><rect class="b" width="12.914" height="10.361" transform="translate(24.39 128.757) rotate(-0.059)"/><rect class="b" width="12.914" height="10.361" transform="matrix(1, -0.001, 0.001, 1, 7.314, 128.774)"/><g transform="translate(160.011 86.707)"><path class="b" d="M557.506,322.058l-41.056-4.181,2.368-15.454,39.455,11.545Z" transform="translate(-516.45 -302.422)"/></g><g transform="translate(125.609 58.149)"><path class="b" d="M495.067,300.126l-32.412-32.413a6.8,6.8,0,0,1,0-9.609h0a6.8,6.8,0,0,1,9.61,0l32.412,32.412Z" transform="translate(-460.665 -256.114)"/></g><path class="b" d="M585.826,315.849h-5.414a6.029,6.029,0,0,0-6.03,6.029h0a5.325,5.325,0,0,0,5.325,5.326h12.148v-5.326A6.03,6.03,0,0,0,585.826,315.849Z" transform="translate(-378.645 -220.862)"/><g transform="translate(207.849 85.458)"><path class="b" d="M610.911,316.726h-1.464v-7.58a7.293,7.293,0,0,0-7.285-7.285h-8.14V300.4h8.14a8.76,8.76,0,0,1,8.749,8.749Z" transform="translate(-594.022 -300.397)"/></g><g transform="translate(217.665 100.394)"><path class="b" d="M622.986,342.545a1.463,1.463,0,0,1-1.463-1.463v-9.454a4.09,4.09,0,0,0-4.085-4.086H611.4a1.463,1.463,0,1,1,0-2.926h6.036a7.019,7.019,0,0,1,7.011,7.011v9.454A1.463,1.463,0,0,1,622.986,342.545Z" transform="translate(-609.939 -324.616)"/></g><g transform="translate(197.067 98.414)"><path class="b" d="M595.4,328.29H579.979a3.442,3.442,0,0,1-3.442-3.442h0a3.442,3.442,0,0,1,3.442-3.443H595.4a3.26,3.26,0,0,1,3.26,3.26v.365A3.26,3.26,0,0,1,595.4,328.29Z" transform="translate(-576.537 -321.405)"/></g><g transform="translate(201.167 80.611)"><path class="b" d="M594.892,298.391a5.853,5.853,0,1,1-5.853-5.853A5.853,5.853,0,0,1,594.892,298.391Z" transform="translate(-583.186 -292.538)"/></g><g transform="translate(187.156 222.232)"><path class="b" d="M572.739,522.182H560.466l.4,9.576h20.822C582.37,526.443,578.056,522.182,572.739,522.182Z" transform="translate(-560.466 -522.182)"/></g><g transform="translate(187.159 136.826)"><path class="b" d="M584.422,400.582l-9.093,59.462-.265,1.828-1.109,7.218H560.471v-9.046l.016-76.351h7.046A16.889,16.889,0,0,1,584.422,400.582Z" transform="translate(-560.471 -383.693)"/></g><g transform="translate(29.367 150.169)"><g transform="translate(52.978)"><path class="b" d="M0,0H33.919a0,0,0,0,1,0,0V0A10.911,10.911,0,0,1,23.008,10.911H0a0,0,0,0,1,0,0V0A0,0,0,0,1,0,0Z"/></g><g transform="translate(2.697)"><path class="b" d="M364.883,405.328h-55.9V408.1H321.12l33.946,18.65,1.336-2.43L326.879,408.1h38Z" transform="translate(-308.978 -405.328)"/></g><g transform="translate(2.697 2.773)"><path class="h" d="M0,0H9.985a0,0,0,0,1,0,0V.306A4.051,4.051,0,0,1,5.934,4.357H0a0,0,0,0,1,0,0V0A0,0,0,0,1,0,0Z"/></g><g transform="translate(0 2.773)"><path class="i" d="M305.761,414.183h1.54v-4.358h-1.54a1.156,1.156,0,0,0-1.156,1.156v2.046A1.156,1.156,0,0,0,305.761,414.183Z" transform="translate(-304.605 -409.825)"/></g></g><g transform="translate(151.593 227.692)"><rect class="b" width="66.823" height="4.719"/></g><g transform="translate(27.304 80.611)"><g transform="translate(222 126.085)"><path class="b" d="M720.431,512.862a31.809,31.809,0,0,0-27.464-15.871,31.7,31.7,0,0,0-31.646,29.667c-.064.691-.08,1.383-.08,2.074a31.391,31.391,0,0,0,.627,6.3,31.728,31.728,0,0,0,62.823-6.3A31.4,31.4,0,0,0,720.431,512.862Zm-27.464,34.6A18.725,18.725,0,0,1,674.3,530.325a13.072,13.072,0,0,1-.081-1.592,18.737,18.737,0,0,1,18.75-18.749,18.451,18.451,0,0,1,4.438.53,18.744,18.744,0,0,1-4.438,36.952Z" transform="translate(-661.241 -496.991)"/></g><g transform="translate(239.842 143.94)"><path class="j" d="M717.932,539.83a13.879,13.879,0,1,1-13.887-13.887A13.886,13.886,0,0,1,717.932,539.83Z" transform="translate(-690.173 -525.943)"/></g><g transform="translate(239.842 157.827)"><path class="b" d="M717.932,548.461a13.879,13.879,0,0,1-27.759,0Z" transform="translate(-690.173 -548.461)"/></g><g transform="translate(221.993 126.092)"><path class="k" d="M692.957,497A31.731,31.731,0,0,0,661.23,528.73h12.992a18.738,18.738,0,0,1,37.475,0h12.988A31.732,31.732,0,0,0,692.957,497Z" transform="translate(-661.23 -497.002)"/></g><g transform="translate(226.482 130.581)"><path class="b" d="M695.748,504.281a27.239,27.239,0,1,0,27.239,27.239A27.24,27.24,0,0,0,695.748,504.281Zm0,43.325a16.086,16.086,0,1,1,16.086-16.086A16.084,16.084,0,0,1,695.748,547.606Z" transform="translate(-668.509 -504.281)"/></g><g transform="translate(233.96 138.19)"><path class="l" d="M700.389,516.619a19.756,19.756,0,0,0-19.754,19.623v.131a19.754,19.754,0,1,0,39.508,0v-.131A19.746,19.746,0,0,0,700.389,516.619Zm13.564,19.754a13.565,13.565,0,1,1-27.129,0v-.131a13.565,13.565,0,0,1,27.129,0Z" transform="translate(-680.635 -516.619)"/></g><g transform="translate(229.689 108.425)"><path class="l" d="M699.3,521.39h0a3.928,3.928,0,0,1-5.179-2.008l-20.074-45.513a3.928,3.928,0,0,1,2.009-5.18h0a3.929,3.929,0,0,1,5.18,2.009l20.073,45.513A3.928,3.928,0,0,1,699.3,521.39Z" transform="translate(-673.71 -468.354)"/></g><path class="b" d="M688.82,483.625l1.569,3.548-5.018,3.585Z" transform="translate(-448.49 -365.782)"/><g transform="translate(220.361 68.67)"><rect class="b" width="9.694" height="24.084"/></g><g transform="translate(213.79 50.608)"><path class="b" d="M671.971,378.07V392.8a3.468,3.468,0,0,1-3.469,3.468h-9.286c-6.125,0-11.452-5.013-11.283-11.135A10.842,10.842,0,0,1,658.772,374.6h9.73A3.469,3.469,0,0,1,671.971,378.07Z" transform="translate(-647.93 -374.601)"/></g><g transform="translate(5.548 102.318)"><rect class="b" width="12.577" height="19.001"/></g><g transform="translate(22.74 126.092)"><path class="b" d="M369.861,497A31.728,31.728,0,1,0,401.59,528.73,31.729,31.729,0,0,0,369.861,497Zm0,50.466A18.738,18.738,0,1,1,388.6,528.73,18.735,18.735,0,0,1,369.861,547.468Z" transform="translate(-338.133 -497.002)"/></g><g transform="translate(130.429 139.576)"><path class="b" d="M533.973,530.608H512.756V518.867h0c0,11.718,9.5,11.741,21.217,11.741Z" transform="translate(-512.756 -518.867)"/></g><g transform="translate(162.576 109.364)"><path class="b" d="M564.883,512.311h42.435V469.876h0a42.435,42.435,0,0,1-42.435,42.435Z" transform="translate(-564.883 -469.876)"/></g><g transform="translate(22.738 126.085)"><path class="k" d="M397.85,513.762a32.157,32.157,0,0,0-3.762-5.515,31.7,31.7,0,0,0-48.449,0,32.086,32.086,0,0,0-3.762,5.515,31.546,31.546,0,0,0-3.747,14.97h12.993a18.741,18.741,0,1,1,37.483,0H401.6A31.538,31.538,0,0,0,397.85,513.762Z" transform="translate(-338.129 -496.991)"/></g><g transform="translate(27.23 130.581)"><path class="b" d="M372.652,504.281a27.239,27.239,0,1,0,27.239,27.239A27.24,27.24,0,0,0,372.652,504.281Zm0,43.325a16.086,16.086,0,1,1,16.086-16.086A16.084,16.084,0,0,1,372.652,547.606Z" transform="translate(-345.413 -504.281)"/></g><g transform="translate(34.885 138.239)"><path class="l" d="M377.407,516.7a19.581,19.581,0,1,0,19.581,19.581A19.581,19.581,0,0,0,377.407,516.7Z" transform="translate(-357.826 -516.699)"/></g><g transform="translate(40.584 143.94)"><path class="j" d="M394.84,539.83a13.886,13.886,0,1,1-13.887-13.887A13.885,13.885,0,0,1,394.84,539.83Z" transform="translate(-367.067 -525.943)"/></g><g transform="translate(54.47 151.937)"><rect class="j" width="63.204" height="12.358"/></g><g transform="translate(54.47 157.75)"><rect class="b" width="63.204" height="6.545"/></g><g transform="translate(40.584 157.827)"><path class="b" d="M394.84,548.461a13.886,13.886,0,0,1-27.773,0Z" transform="translate(-367.067 -548.461)"/></g><g transform="translate(199.155 34.192)"><path class="b" d="M650.853,394.022l-5.121,3.82L624.2,351.8l5.121-3.82Z" transform="translate(-624.197 -347.981)"/></g><g transform="translate(192.823 31.126)"><path class="b" d="M4.1,0H9.493a4.1,4.1,0,0,1,4.1,4.1V6.14a4.1,4.1,0,0,1-4.1,4.1H4.1A4.1,4.1,0,0,1,0,6.14V4.1A4.1,4.1,0,0,1,4.1,0Z"/></g><g transform="translate(173.008 4.847)"><path class="m" d="M598.688,316.726h-1.463v-7.58a7.294,7.294,0,0,0-7.286-7.285H581.8V300.4h8.14a8.76,8.76,0,0,1,8.75,8.749Z" transform="translate(-581.799 -300.397)"/></g><g transform="translate(182.824 19.782)"><path class="l" d="M610.764,342.545a1.463,1.463,0,0,1-1.463-1.463v-9.454a4.09,4.09,0,0,0-4.085-4.086H599.18a1.463,1.463,0,0,1,0-2.926h6.036a7.019,7.019,0,0,1,7.011,7.011v9.454A1.463,1.463,0,0,1,610.764,342.545Z" transform="translate(-597.717 -324.616)"/></g><g transform="translate(162.225 17.802)"><path class="i" d="M583.174,328.29H567.757a3.443,3.443,0,0,1-3.443-3.442h0a3.443,3.443,0,0,1,3.443-3.443h15.417a3.261,3.261,0,0,1,3.26,3.26v.365A3.261,3.261,0,0,1,583.174,328.29Z" transform="translate(-564.314 -321.405)"/></g><g transform="translate(105.757 92.905)"><path class="b" d="M498.372,501.6H472.749l.161-58.412h39.74a32.462,32.462,0,0,0-15.229,28.152C497.421,496.131,498.372,501.6,498.372,501.6Z" transform="translate(-472.749 -443.188)"/></g><g transform="translate(205.014 56.452)"><rect class="b" width="9.905" height="95.492"/></g><path class="b" d="M720.431,517.07l-12.414,4.695L674.3,534.532l-12.43,4.712a31.392,31.392,0,0,1-.627-6.3c0-.691.016-1.383.08-2.074l15.1-6.753,20.984-9.391,15.115-6.753A31.165,31.165,0,0,1,720.431,517.07Z" transform="translate(-439.242 -375.113)"/><g transform="translate(214.919 120.135)"><path class="n" d="M649.76,529V527.1c0-22.586,14.088-39.755,36.675-39.755,11.529,0,23.832,6.529,31.268,14.142Z" transform="translate(-649.76 -487.343)"/></g><path class="b" d="M676.992,487.173l-18.31,37.081L650.42,527.3l25-43.67Z" transform="translate(-435.094 -365.782)"/><g transform="translate(109.241 47.362)"><path class="e" d="M609.487,439.818c-22.037,45.5-21.771,46.433-30.28,46.45l-100.809.017V473.271l85.636.067c2.343-.05,6.4-1.413,10.137-7.728,4.471-7.562,8.509-22.2,8.609-50.106v-3.042c-.017-12.381-.1-25.56-.15-34.035-.05-5.551-.083-9.091-.083-9.091l19.179,50.156.947,2.509Z" transform="translate(-478.398 -369.337)"/></g><g transform="translate(17.021 69.695)"><path class="n" d="M412.056,469.9h-83.2V446.915c0-21.536,17.459-41.364,38.995-41.364h44.2Z" transform="translate(-328.859 -405.551)"/></g><g transform="translate(54.778 69.695)"><path class="b" d="M468.345,405.551H390.084c0,11.511,9.331,23.211,20.841,23.211h70.039v-8.223C480.964,413.57,475.314,405.551,468.345,405.551Z" transform="translate(-390.084 -405.551)"/></g><g transform="translate(91.433 127.077)"><rect class="j" width="17.809" height="24.86"/></g><g transform="translate(62.392 92.905)"><rect class="n" width="43.545" height="43.64"/></g><g transform="translate(7.019 92.798)"><path class="e" d="M414.829,481.271v6.282H312.64v-6.282a38.155,38.155,0,0,1,5.916-20.442c.549-.864,1.114-1.7,1.712-2.493A38.245,38.245,0,0,1,350.9,443.014h25.676A38.264,38.264,0,0,1,414.829,481.271Z" transform="translate(-312.64 -443.014)"/></g><g transform="translate(7.017 137.335)"><path class="b" d="M312.638,548.247h0V515.232h7.077v25.939A7.077,7.077,0,0,1,312.638,548.247Z" transform="translate(-312.638 -515.232)"/></g><g transform="translate(0 102.318)"><path class="i" d="M304.8,477.449h2.007v-19H304.8a3.542,3.542,0,0,0-3.542,3.542v11.914A3.542,3.542,0,0,0,304.8,477.449Z" transform="translate(-301.259 -458.451)"/></g><g transform="translate(199.155 47.359)"><path class="b" d="M638.535,381.27h-9.82a4.518,4.518,0,0,1-4.518-4.518v-2.9a4.518,4.518,0,0,1,4.518-4.518h9.725Z" transform="translate(-624.197 -369.333)"/></g><g transform="translate(11.689 124.375)"><g transform="translate(0 5.167)"><rect class="b" width="21.648" height="2.561"/></g><rect class="b" width="21.648" height="2.561"/></g><g transform="translate(166.326)"><path class="m" d="M582.67,298.391a5.853,5.853,0,1,1-5.853-5.853A5.853,5.853,0,0,1,582.67,298.391Z" transform="translate(-570.964 -292.538)"/></g><g transform="translate(143.849 141.481)"><path class="n" d="M547.147,521.956H534.516l.415,9.856h21.43C557.06,526.341,552.619,521.956,547.147,521.956Z" transform="translate(-534.516 -521.956)"/></g></g><g transform="translate(40.238 188.732)"><path class="b" d="M401.971,484.114h-2.493a13.767,13.767,0,0,0-13.76-13.761H322.233c.549-.864,1.114-1.7,1.712-2.493h61.772A16.267,16.267,0,0,1,401.971,484.114Z" transform="translate(-322.233 -467.86)"/></g><g transform="translate(232.318 159.632)"><path class="b" d="M662.2,441.68a32.4,32.4,0,0,1-18.6-5.551c-.449-.315-.881-.615-1.3-.947a36.215,36.215,0,0,1-8.609-9.572v-4.936a34.508,34.508,0,0,0,8.609,11.466q.624.549,1.3,1.048a29.682,29.682,0,0,0,17.649,5.983Z" transform="translate(-633.698 -420.674)"/></g><g transform="translate(118.737 217.946)"><path class="e" d="M449.522,515.232H467.33V529.2h-3.841a13.967,13.967,0,0,1-13.967-13.968Z" transform="translate(-449.522 -515.232)"/></g><g transform="translate(107.253 34.835)"><g transform="translate(12.93 0)"><g transform="translate(0)"><rect class="o" width="17.874" height="16.287" transform="matrix(0.979, 0.206, -0.206, 0.979, 3.356, 0)"/></g></g><g transform="translate(0.004 99.358)"><path class="g" d="M498.4,379.422V404.35H446.936a16.015,16.015,0,0,1-16.028-16.044v-8.884Z" transform="translate(-430.908 -379.422)"/></g><g transform="translate(20.693 97.812)"><path class="b" d="M470.587,392.772h-6.131v-1.608h6.131a8.128,8.128,0,0,0,8.118-8.119v-6.131h1.608v6.131A9.738,9.738,0,0,1,470.587,392.772Z" transform="translate(-464.456 -376.915)"/></g><g transform="translate(63.901 99.358)"><path class="g" d="M559.171,396.8,549.812,458l-.273,1.881-1.141,7.429H534.52V458l.016-78.582h7.252A17.382,17.382,0,0,1,559.171,396.8Z" transform="translate(-534.52 -379.423)"/></g><g transform="translate(0 14.569)"><path class="n" d="M469.895,260.473v66.249H430.9V260.473a18.536,18.536,0,0,1,18.54-18.54h1.913a18.541,18.541,0,0,1,18.54,18.54Z" transform="translate(-430.901 -241.933)"/></g><path class="b" d="M471.741,297.9l13.81,32.938V303.651Z" transform="translate(-446.555 -248.818)"/><g transform="translate(42.41 53.502)"><path class="n" d="M540.726,323.091l-41.056-4.181,5.585-13.845L541.493,315Z" transform="translate(-499.67 -305.064)"/></g><g transform="translate(8.662 21.752)"><path class="n" d="M478.695,299.176,447.4,267.882a8.377,8.377,0,0,1,0-11.847h0a8.378,8.378,0,0,1,11.848,0l39.961,39.96Z" transform="translate(-444.947 -253.581)"/></g><g transform="translate(0.004 99.358)"><path class="n" d="M469.9,379.422l-30,23.275h-.059a16.035,16.035,0,0,1-8.93-14.391v-8.884Z" transform="translate(-430.908 -379.422)"/></g></g><path class="o" d="M569.046,315.882h-5.415a6.03,6.03,0,0,0-6.029,6.029h0a5.326,5.326,0,0,0,5.326,5.326h12.148v-5.326A6.029,6.029,0,0,0,569.046,315.882Z" transform="translate(-372.213 -220.874)"/><path class="b" d="M400.179,520.758H344.2a32.086,32.086,0,0,1,3.762-5.515h48.449A32.157,32.157,0,0,1,400.179,520.758Z" transform="translate(-290.417 -297.29)"/><path class="b" d="M549.812,506.847l-.273,1.881H534.52v-1.881Z" transform="translate(-363.365 -294.072)"/><ellipse class="p" cx="158.935" cy="3.795" rx="158.935" ry="3.795" transform="translate(15.217 264.319)"/><g transform="translate(114.001 0.988)"><g transform="translate(0)"><path class="b" d="M441.843,180.6a17.616,17.616,0,1,0,17.61-17.179A17.4,17.4,0,0,0,441.843,180.6Z" transform="translate(-441.843 -163.425)"/></g><g transform="translate(3.449 3.691)"><path class="o" d="M473.738,206.892h-4.861a21.442,21.442,0,0,1-21.442-21.443v-1.032a15.007,15.007,0,0,1,15.007-15.007h2.616a15.008,15.008,0,0,1,15.007,15.007v16.149A6.326,6.326,0,0,1,473.738,206.892Z" transform="translate(-447.435 -169.41)"/></g><g transform="translate(36.079 25.5)"><path class="o" d="M502.311,211.261h-1.965v-6.487l2.911,4.807A1.106,1.106,0,0,1,502.311,211.261Z" transform="translate(-500.346 -204.774)"/></g><g transform="translate(0.03 10.942)"><path class="b" d="M450.417,208.927c-9.17-13.2-8.515-20.375-8.515-20.375l9.827-7.384c6.826,0,12.249,1.86,12.249,8.685l-1.961.279C463.977,210.827,450.417,208.927,450.417,208.927Z" transform="translate(-441.891 -181.168)"/></g><g transform="translate(12.763 21.933)"><path class="o" d="M469.881,209.2H466.21a3.671,3.671,0,0,1-3.671-3.671v-2.873a3.671,3.671,0,0,1,3.671-3.671h0a3.67,3.67,0,0,1,3.671,3.671Z" transform="translate(-462.539 -198.99)"/></g><g transform="translate(20.056 17.857)"><rect class="b" width="3.267" height="16.179"/></g><g transform="translate(20.053 31.981)"><path class="b" d="M490.7,215.284v9.507a2.923,2.923,0,0,1-2.923,2.923h-4.7a8.721,8.721,0,0,1-8.721-8.721v-3.708h3.27v1.668a1.668,1.668,0,0,0,1.668,1.668h2.851a1.669,1.669,0,0,0,1.668-1.668h0a1.667,1.667,0,0,1,1.668-1.668Z" transform="translate(-474.36 -215.284)"/></g><g transform="translate(3.449 2.461)"><path class="b" d="M476.613,174.077h-3.579a5.789,5.789,0,0,0-5.774,5.888l.049,2.906-19.874,4.43.639-15.378S465.765,160.469,476.613,174.077Z" transform="translate(-447.435 -167.415)"/></g></g></svg>