<svg xmlns="http://www.w3.org/2000/svg" width="66.326" height="53.364" viewBox="0 0 66.326 53.364"><defs><style>.a,.b{fill:rgba(0,0,0,0);}.a,.b,.c,.d,.e{stroke:#285fdb;}.a,.c{stroke-linecap:round;}.a,.b,.c,.d{stroke-linejoin:round;stroke-width:3px;}.c,.d,.g{fill:none;}.e{fill:#696771;stroke-width:1.5px;}.f{stroke:none;}</style></defs><g transform="translate(1.5)"><g transform="translate(0 18.62)"><path class="a" d="M121.893,236.5h22.068V208h-4.654" transform="translate(-101.216 -208)"/><path class="b" d="M140.249,234.747H135.5V211h12.665l7.916,12.665v11.082h-6.332" transform="translate(-92.755 -206.251)"/><g class="b" transform="translate(45.995 22.247)"><ellipse class="f" cx="6.249" cy="6.249" rx="6.249" ry="6.249"/><ellipse class="g" cx="6.249" cy="6.249" rx="4.749" ry="4.749"/></g><g class="b" transform="translate(8 22.247)"><ellipse class="f" cx="6.249" cy="6.249" rx="6.249" ry="6.249"/><ellipse class="g" cx="6.249" cy="6.249" rx="4.749" ry="4.749"/></g><line class="c" x2="7.916" transform="translate(0 28.496)"/></g><line class="d" x1="20.581" transform="translate(42.745 36.034)"/><line class="c" y2="28.496" transform="translate(0 18.62)"/><line class="c" x2="4.215" transform="translate(0 18.62)"/><g class="a" transform="translate(3.166 0)"><ellipse class="f" cx="17.996" cy="17.996" rx="17.996" ry="17.996"/><ellipse class="g" cx="17.996" cy="17.996" rx="16.496" ry="16.496"/></g><path class="e" d="M10.647,4.324H8.206A4.81,4.81,0,0,0,6.279.961h4.367a.48.48,0,0,0,0-.961H.48a.48.48,0,1,0,0,.961H3.392A3.882,3.882,0,0,1,7.24,4.324H.48a.48.48,0,1,0,0,.961H7.24A3.889,3.889,0,0,1,3.392,8.7H.485A.488.488,0,0,0,0,9.191a.5.5,0,0,0,.149.346l7.269,6.875a.479.479,0,0,0,.677-.019.49.49,0,0,0-.019-.687L1.686,9.657h1.7A4.853,4.853,0,0,0,8.206,5.285h2.441a.48.48,0,0,0,0-.961Z" transform="translate(15.589 10.232)"/></g></svg>